<svg width="112" height="23" viewBox="0 0 112 23" fill="none" xmlns="http://www.w3.org/2000/svg">
<g id="Elevate Logo">
<g id="Logo">
<path d="M8 6.3125C9.54167 6.3125 10.8646 6.64583 11.9688 7.3125C13.0938 7.97917 13.9479 8.90625 14.5312 10.0938C15.1354 11.2604 15.4375 12.6146 15.4375 14.1562V15.8438H4C4.20833 16.9062 4.72917 17.7604 5.5625 18.4062C6.39583 19.0521 7.41667 19.375 8.625 19.375C9.77083 19.375 10.8125 19.1458 11.75 18.6875C12.6875 18.2292 13.4375 17.7604 14 17.2812L13.9688 20.9688C13.4688 21.4062 12.7188 21.8542 11.7188 22.3125C10.7396 22.75 9.65625 22.9688 8.46875 22.9688C6.90625 22.9688 5.47917 22.6146 4.1875 21.9062C2.91667 21.1979 1.89583 20.2292 1.125 19C0.375 17.7708 0 16.3646 0 14.7812C0 13.2396 0.34375 11.8333 1.03125 10.5625C1.71875 9.29167 2.66667 8.27083 3.875 7.5C5.08333 6.70833 6.45833 6.3125 8 6.3125ZM7.90625 9.78125C6.92708 9.78125 6.10417 10.0833 5.4375 10.6875C4.77083 11.2917 4.3125 12.1042 4.0625 13.125H11.625C11.5417 12 11.125 11.1667 10.375 10.625C9.625 10.0625 8.80208 9.78125 7.90625 9.78125Z" fill="#2467F6"/>
<path d="M23.0312 0V22.5H19.0625V0H23.0312Z" fill="#2467F6"/>
<path d="M34.7812 6.3125C36.3229 6.3125 37.6458 6.64583 38.75 7.3125C39.875 7.97917 40.7292 8.90625 41.3125 10.0938C41.9167 11.2604 42.2188 12.6146 42.2188 14.1562V15.8438H30.7812C30.9896 16.9062 31.5104 17.7604 32.3438 18.4062C33.1771 19.0521 34.1979 19.375 35.4062 19.375C36.5521 19.375 37.5938 19.1458 38.5312 18.6875C39.4688 18.2292 40.2188 17.7604 40.7812 17.2812L40.75 20.9688C40.25 21.4062 39.5 21.8542 38.5 22.3125C37.5208 22.75 36.4375 22.9688 35.25 22.9688C33.6875 22.9688 32.2604 22.6146 30.9688 21.9062C29.6979 21.1979 28.6771 20.2292 27.9062 19C27.1562 17.7708 26.7812 16.3646 26.7812 14.7812C26.7812 13.2396 27.125 11.8333 27.8125 10.5625C28.5 9.29167 29.4479 8.27083 30.6562 7.5C31.8646 6.70833 33.2396 6.3125 34.7812 6.3125ZM34.6875 9.78125C33.7083 9.78125 32.8854 10.0833 32.2188 10.6875C31.5521 11.2917 31.0938 12.1042 30.8438 13.125H38.4062C38.3229 12 37.9062 11.1667 37.1562 10.625C36.4062 10.0625 35.5833 9.78125 34.6875 9.78125Z" fill="#2467F6"/>
<path d="M61.0938 6.71875L53.625 22.5H51.0938L43.7188 6.71875H48.3438L52.3125 16.5L56.4688 6.71875H61.0938Z" fill="#2467F6"/>
<path d="M69.1562 6.3125C70.0104 6.3125 70.875 6.51042 71.75 6.90625C72.625 7.30208 73.3542 7.83333 73.9375 8.5V6.71875H77.9062V22.5H73.9375V19.8438C73.4792 20.6979 72.8125 21.4375 71.9375 22.0625C71.0625 22.6667 70.0417 22.9688 68.875 22.9688C67.6042 22.9688 66.4271 22.6458 65.3438 22C64.2812 21.3542 63.4271 20.4167 62.7812 19.1875C62.1354 17.9583 61.8125 16.4688 61.8125 14.7188C61.8125 12.9688 62.1354 11.4688 62.7812 10.2188C63.4479 8.96875 64.3333 8.01042 65.4375 7.34375C66.5625 6.65625 67.8021 6.3125 69.1562 6.3125ZM69.9688 10.1875C69.1354 10.1875 68.4167 10.4062 67.8125 10.8438C67.2292 11.2604 66.7708 11.8125 66.4375 12.5C66.1042 13.1875 65.9375 13.9271 65.9375 14.7188C65.9375 15.9062 66.2917 16.9167 67 17.75C67.7292 18.5833 68.6875 19 69.875 19C70.5833 19 71.2396 18.8125 71.8438 18.4375C72.4688 18.0625 72.9688 17.5417 73.3438 16.875C73.7396 16.1875 73.9375 15.3646 73.9375 14.4062V12.1562C73.375 11.5521 72.7604 11.0729 72.0938 10.7188C71.4479 10.3646 70.7396 10.1875 69.9688 10.1875Z" fill="#2467F6"/>
<path d="M88.5 2.125V6.71875H92.875V10.0312H88.5V16.8438C88.5 17.5521 88.6562 18.1146 88.9688 18.5312C89.3021 18.9271 89.7917 19.125 90.4375 19.125C91 19.125 91.4792 19.0625 91.875 18.9375C92.2917 18.8125 92.6771 18.6354 93.0312 18.4062V21.5625C92.6354 21.9583 92.1354 22.2917 91.5312 22.5625C90.9479 22.8333 90.2083 22.9688 89.3125 22.9688C87.8958 22.9688 86.7396 22.5208 85.8438 21.625C84.9688 20.7083 84.5312 19.4583 84.5312 17.875V10.0312H81.6875V8C82.6875 7.64583 83.6042 6.97917 84.4375 6C85.2917 5.02083 85.9688 3.72917 86.4688 2.125H88.5Z" fill="#2467F6"/>
<path d="M103.844 6.3125C105.385 6.3125 106.708 6.64583 107.812 7.3125C108.938 7.97917 109.792 8.90625 110.375 10.0938C110.979 11.2604 111.281 12.6146 111.281 14.1562V15.8438H99.8438C100.052 16.9062 100.573 17.7604 101.406 18.4062C102.24 19.0521 103.26 19.375 104.469 19.375C105.615 19.375 106.656 19.1458 107.594 18.6875C108.531 18.2292 109.281 17.7604 109.844 17.2812L109.812 20.9688C109.312 21.4062 108.562 21.8542 107.562 22.3125C106.583 22.75 105.5 22.9688 104.312 22.9688C102.75 22.9688 101.323 22.6146 100.031 21.9062C98.7604 21.1979 97.7396 20.2292 96.9688 19C96.2188 17.7708 95.8438 16.3646 95.8438 14.7812C95.8438 13.2396 96.1875 11.8333 96.875 10.5625C97.5625 9.29167 98.5104 8.27083 99.7188 7.5C100.927 6.70833 102.302 6.3125 103.844 6.3125ZM103.75 9.78125C102.771 9.78125 101.948 10.0833 101.281 10.6875C100.615 11.2917 100.156 12.1042 99.9062 13.125H107.469C107.385 12 106.969 11.1667 106.219 10.625C105.469 10.0625 104.646 9.78125 103.75 9.78125Z" fill="#2467F6"/>
</g>
</g>
</svg>
